<?xml version="1.0" encoding="UTF-8" standalone="no"?>
<!-- Created with Inkscape (http://www.inkscape.org/) -->

<svg
   version="1.1"
   id="svg2"
   xml:space="preserve"
   width="2829.3333"
   height="2829.3333"
   viewBox="0 0 2829.3333 2829.3333"
   sodipodi:docname="1098_U1RVRElPIEtBVCAxMjYtMTAx.eps"
   xmlns:inkscape="http://www.inkscape.org/namespaces/inkscape"
   xmlns:sodipodi="http://sodipodi.sourceforge.net/DTD/sodipodi-0.dtd"
   xmlns="http://www.w3.org/2000/svg"
   xmlns:svg="http://www.w3.org/2000/svg"><defs
     id="defs6" /><sodipodi:namedview
     id="namedview4"
     pagecolor="#ffffff"
     bordercolor="#666666"
     borderopacity="1.0"
     inkscape:pageshadow="2"
     inkscape:pageopacity="0.0"
     inkscape:pagecheckerboard="0" /><g
     id="g8"
     inkscape:groupmode="layer"
     inkscape:label="ink_ext_XXXXXX"
     transform="matrix(1.3333333,0,0,-1.3333333,0,2829.3333)"><g
       id="g10"
       transform="scale(0.1)"><path
         d="m 18291,10613.4 c 0,-4244 -3440.4,-7684.3 -7684.1,-7684.3 -4244.09,0 -7684.69,3440.3 -7684.69,7684.3 0,4244 3440.6,7684.3 7684.69,7684.3 4243.7,0 7684.1,-3440.3 7684.1,-7684.3"
         style="fill:#ffffff;fill-opacity:1;fill-rule:nonzero;stroke:none"
         id="path12" /><path
         d="m 18291,10613.4 c 0,-4244 -3440.4,-7684.3 -7684.1,-7684.3 -4244.09,0 -7684.69,3440.3 -7684.69,7684.3 0,4244 3440.6,7684.3 7684.69,7684.3 4243.7,0 7684.1,-3440.3 7684.1,-7684.3 z"
         style="fill:none;stroke:#231f20;stroke-width:249.449;stroke-linecap:round;stroke-linejoin:round;stroke-miterlimit:10;stroke-dasharray:none;stroke-opacity:1"
         id="path14" /><path
         d="m 17644.7,13680.3 c 2.7,-0.3 5.5,0 8.3,-0.2 -75.7,173.8 -157.7,344 -245.5,510.6 -27.6,-8.1 -49.1,-16.8 -52.1,-25.6 -8.5,-25.5 -42.7,-51.1 -42.7,-51.1 0,0 -59.1,-25.4 -67.9,-51.1 -8.5,-25.5 -50.9,-25.5 -50.9,-25.5 l -59.5,-8.5 101.9,-178.5 25.5,-68.2 59.5,-83.5 c 0,0 0,18.6 59.7,0 59.5,-18.4 144.5,0 144.5,0 l 33.9,-8.2 c 0,0 17.3,10.4 51.2,0 34.1,-10.2 -59.5,-1.8 34.1,-10.2"
         style="fill:#231f20;fill-opacity:1;fill-rule:nonzero;stroke:none"
         id="path16" /><path
         d="m 8421.4,16530 11.86,-5.4 c 51.69,39.6 -11.86,5.4 -11.86,5.4"
         style="fill:#231f20;fill-opacity:1;fill-rule:nonzero;stroke:none"
         id="path18" /><path
         d="m 10641.5,8627.1 c 8.6,34.1 -280.5,365.8 -280.5,365.8 l -229.5,59.5 -493.52,153.1 -195.71,93.6 -221.29,-85 c 0,0 -118.93,-59.5 -203.95,-51.1 -85.06,8.5 -221.29,102 -221.29,127.6 0,25.4 -8.55,68 17.03,93.7 25.58,25.3 102.12,152.9 119.2,178.5 17.02,25.6 25.31,42.5 25.31,110.7 0,67.9 50.96,195.6 -33.79,255.1 -85.14,59.7 -587.16,212.8 -587.16,212.8 0,0 -102.09,161.6 -136.22,187.1 -33.86,25.5 -348.77,136 -348.77,136 0,0 -76.51,68.2 -102.14,85.1 -25.31,17.1 -272.18,127.7 -272.18,127.7 l -408.47,34.1 c 0,0 42.61,87 -67.97,94.6 -110.4,7.4 -203.99,-103.2 -203.99,-103.2 0,0 0,-93.6 -42.68,-136.1 -42.38,-42.4 -187.11,102.1 -187.11,102.1 0,0 8.48,59.4 -42.46,8.5 -50.89,-51.1 -144.77,-34.1 -170.08,-93.7 -25.63,-59.3 -85.07,-76.4 -85.07,-76.4 0,0 -161.85,136 -195.71,127.6 -34.05,-8.6 -204.21,-51.2 -204.21,-51.2 0,0 8.55,-25.4 -42.65,-16.9 -50.9,8.5 -289.28,239.3 -289.28,239.3 0,0 -8.21,67 0,92.4 8.77,25.5 -3.63,263.9 -3.63,263.9 l -72.62,119 c 0,0 -119.2,25.5 -144.78,0 -25.62,-25.5 -289.27,76.4 -263.43,119.1 25.31,42.5 76.28,42.5 101.59,127.5 25.84,85.2 25.84,306.3 25.84,306.3 l 68.01,85.1 c 0,0 -165.16,76.6 -197.36,0 -32.45,-76.4 -159.93,-161.7 -168.74,-195.7 -7.14,-28.7 -310.48,-69.5 -405.14,-81.6 4.7,10.9 0.58,35.7 -28.36,90.1 -68.26,127.6 -153.05,399.9 -153.05,425.3 0,25.6 -119.41,110.7 0,246.7 118.92,136.2 110.37,178.8 127.4,204.3 17.1,25.5 187.24,118.9 238.12,136.1 51.21,16.9 85.39,85 178.95,85 93.57,0 161.59,-8.5 186.9,0 25.84,8.5 51.15,-25.6 102.12,0 51.15,25.6 17.02,34 127.71,76.6 110.34,42.7 161.54,42.6 229.53,0 68.23,-42.6 289.32,-17.1 289.32,-17.1 0,0 25.58,110.7 67.97,-42.5 42.68,-153.1 50.91,-127.6 76.81,-212.6 25.31,-85.1 169.81,-178.7 169.81,-178.7 0,0 17.03,-153.1 50.89,59.5 34.45,212.6 34.45,212.6 34.45,263.8 0,51 0,246.6 25.31,272.1 25.58,25.6 306.35,365.9 306.35,365.9 0,0 178.9,161.8 238.05,238.1 59.76,76.6 127.75,187.3 127.75,187.3 0,0 101.82,187 127.47,212.6 25.58,25.5 110.58,50.9 213.01,85.1 101.9,34 203.99,51 263.43,119.1 59.42,67.8 68.24,136.1 136.23,170.1 67.96,34 50.94,76.5 170.13,153 119.19,76.6 161.58,59.8 289.01,102.2 127.72,42.5 127.72,42.5 127.72,42.5 0,0 34.13,-59.4 42.61,-153.2 8.54,-93.4 -68.24,-102 8.54,-93.4 76.55,8.3 127.75,17 204,76.5 76.78,59.5 34.13,25.4 76.78,59.5 42.42,34.1 50.89,218.7 50.89,218.7 0,0 67.99,79 -17.03,138.6 -85.06,59.6 -76.51,76.5 -144.5,59.6 -67.97,-17.1 -221.29,-47 -221.29,6.2 0,53.1 255.15,198 255.15,198 0,0 127.67,-8.6 255.42,0 127.67,8.5 357.24,25.4 408.47,93.5 50.94,68.1 374.05,161.6 374.05,161.6 0,0 59.76,161.7 -8.25,212.8 -68.26,50.9 -161.61,17.1 -212.77,153.1 -51.2,136.1 -186.89,416.8 -204.26,442.3 -17.35,25.5 -195.71,85.1 -221.02,85.1 -25.58,0 -110.65,0 -110.65,0 l -302.99,139.2 c -16.3,-12.5 -43.53,-32.2 -88.43,-62.6 -187.11,-127.6 -204.21,-102.2 -238.34,-153.1 -34.1,-51 -118.9,-119.2 -178.61,-204.3 -59.49,-85.1 -42.41,-93.4 -102.12,-178.7 -59.48,-84.8 -59.75,-127.5 -153.02,-195.5 -93.62,-68 -382.9,-331.8 -382.9,-331.8 0,0 -136,-17.1 -144.5,127.5 -8.53,144.7 -50.94,255.2 -50.94,289.2 0,34.3 -144.78,119.2 -144.78,119.2 0,0 -272.22,-8.6 -289.25,51.1 -17.1,59.5 -51.23,102.2 -51.23,161.5 0,59.8 -25.31,170.2 17.1,229.9 42.92,59.3 42.92,163.7 119.12,167 76.59,3 93.62,37 221.31,54.1 127.73,16.9 246.92,25.5 314.65,68 67.96,42.6 102.08,110.5 195.7,127.5 93.6,17.2 127.46,8.7 229.84,42.7 102.1,34 195.71,76.5 238.1,76.5 42.63,0 127.43,41.2 170.08,41.9 42.68,0.6 85.07,85.8 85.07,85.8 l 85.28,255.1 c 0,0 -59.7,-16.9 -246.86,-85 -187.19,-68.1 -161.34,-255.3 -306.36,-110.6 -144.5,144.6 -290.93,306.3 -289.86,314.6 0.58,8.7 -93.03,17.2 -135.42,-59.3 -42.68,-76.6 -102.12,-102.2 -170.08,-178.8 -68.26,-76.5 -51.23,-102 -195.66,-102 -87.04,0 -291.26,18.6 -440.19,33.2 -1651.46,-1046.2 -2876.05,-2703.8 -3355.53,-4655.4 29.74,-51 56.71,-94.3 69.88,-116.1 25.39,-42.7 289.28,-374.4 289.28,-374.4 0,0 -145.04,-195.5 -17.07,-255.3 127.5,-59.5 101.87,-16.9 280.55,-144.5 178.56,-127.6 306.31,-178.6 306.31,-178.6 0,0 -255.47,51 144.51,-68.3 399.65,-119 442.3,-144.3 459.41,-119 17.34,25.7 25.58,153.3 68.28,34.1 42.36,-119 -25.63,-102.1 135.64,-204.2 161.87,-102.1 357.58,-263.7 408.47,-297.8 51.2,-34 127.72,-93.4 127.72,-93.4 0,0 255.42,-190.4 280.73,-201.5 25.65,-11.3 340.29,-104.8 340.29,-104.8 0,0 170.01,76.6 204.18,-8.5 33.87,-84.9 50.96,-127.6 33.87,-187.2 -16.77,-59.7 -178.64,-357.4 -178.64,-357.4 l -118.9,-229.6 -153.32,-187.2 v -221.1 c 0,0 0,-17.2 34.12,-59.6 33.86,-42.4 -34.12,-297.6 -34.12,-297.6 l 136.22,-178.8 c 0,0 42.41,-153 76.59,-212.6 34.05,-59.6 101.77,-204.1 127.67,-246.8 25.31,-42.4 76.51,-93.5 76.51,-93.5 0,0 101.86,-102 135.96,-187.1 34.18,-85.3 110.64,-127.7 144.77,-178.6 33.91,-51.3 -25.58,-8.5 33.91,-51.3 59.71,-42.3 33.86,-16.8 127.96,-67.8 93.28,-51.2 -77.07,127.5 93.28,-51.2 170.13,-178.5 170.13,-178.5 170.13,-178.5 0,0 42.36,8.5 110.65,-212.8 68.26,-221.2 102.16,-280.6 102.16,-280.6 v -484.9 c 0,0 33.87,-144.6 0,-212.8 -33.9,-68 -42.72,-348.7 -33.9,-425.3 8.28,-76.5 30.01,-85.1 48.96,-212.7 18.81,-127.5 36.1,-238.1 44.65,-357 8.21,-119.4 0,-136.2 0,-229.9 0,-93.6 -60.56,-314.8 3.58,-451 64.12,-135.9 -46.52,0 157.68,-212.5 204.27,-212.8 255.47,-178.8 255.47,-280.8 0,-102.1 -17.07,-144.7 67.99,-323.3 35.18,-73.8 12.38,-121.2 -4.7,-151.7 44.04,-18 88.38,-35.1 132.69,-52.3 5.78,0 10.48,-0.1 16.49,-0.1 314.91,0 331.69,59.5 331.69,59.5 0,0 17.08,85 42.66,119.1 25.57,34.2 85.06,195.7 85.06,238.2 0,42.7 -59.49,255.1 -59.49,255.1 l -85.01,170.1 c 0,0 -59.76,93.8 0,187.3 59.44,93.7 144.5,280.8 144.5,280.8 0,0 -59.7,85 0,110.5 59.44,25.5 110.65,51.1 136.23,76.7 25.31,25.4 85.06,110.5 85.06,136 0,25.6 50.89,153.2 0,221.1 -51.2,68.2 -93.86,85.3 -42.65,119.2 50.89,34 204.21,144.6 204.21,144.6 0,0 51.2,-25.6 93.59,-8.6 42.68,17.2 144.78,178.8 187.14,229.8 42.7,51.1 93.59,144.6 110.96,170.1 16.76,25.7 76.25,187.1 93.35,297.8 17.02,110.6 25.58,136.1 76.46,153.1 50.94,17 68.24,42.6 110.65,68.1 42.38,25.5 50.94,17 136.27,102.1 84.8,85 -8.82,93.6 144.5,127.5 152.79,34.1 187.17,51 212.55,59.6 25.85,8.5 93.54,51 135.95,93.6 42.58,42.4 68.28,110.6 127.68,170.1 59.8,59.6 93.6,153.2 93.6,178.6 0,25.5 -59.5,76.5 0,170.1 59.5,93.7 -8.5,42.6 110.6,246.9 119.2,204 161.6,408.2 204,442.2 42.7,34.1 110.6,399.7 110.6,399.7 0,0 -8.2,127.8 0,161.8"
         style="fill:#231f20;fill-opacity:1;fill-rule:nonzero;stroke:none"
         id="path20" /><path
         d="m 6815.32,17216.3 c 38.25,49.6 102.1,126.3 102.1,126.3 0,0 13.25,11.6 23.14,25.8 -67.18,-36.5 -132.71,-75.8 -198.7,-114.3 24.45,-30.8 45.65,-74.2 73.46,-37.8"
         style="fill:#231f20;fill-opacity:1;fill-rule:nonzero;stroke:none"
         id="path22" /><path
         d="m 7312.96,17540.1 c 0,0 -31.91,-38.2 0,-38.2 31.94,0 -6.34,19.1 31.94,0 38.24,-19.2 76.53,0 76.53,0 l 38.23,-8.5 31.93,43.5 h 57.51 l 44.59,43.3 v 36.5 51.1 c -13.77,2 -24.25,0.6 -35.77,0 -94.95,-41 -189.37,-82.9 -282.11,-127.7 h 37.15"
         style="fill:#231f20;fill-opacity:1;fill-rule:nonzero;stroke:none"
         id="path24" /><path
         d="m 7976.58,17674.2 h -210.84 l -50.67,-90.3 19.03,-50 c 0,0 0,0 19.27,6.2 19,6.5 38.22,0 63.6,26.3 25.58,26 25.58,17.5 25.58,17.5 0,0 76.52,32.8 95.78,45.1 18.98,12.2 50.89,0 50.89,0 0,0 25.66,0.5 44.61,0 19.27,-0.6 0,45.2 0,45.2 h -25.58 -31.67"
         style="fill:#231f20;fill-opacity:1;fill-rule:nonzero;stroke:none"
         id="path26" /><path
         d="m 8248.49,17789.1 c 42.68,-8.7 76,0 76,0 0,0 22.32,-21.3 64.65,-21.3 42.74,0 42.74,0 42.74,0 0,0 29.69,0 42.06,0 12.94,0 51.23,0 51.23,0 0,0 59.42,12.6 76.78,0 17.08,-12.9 51.21,12.6 67.97,0 17.1,-12.9 38.3,13.9 55.32,-3.8 16.84,-17.4 67.99,-17.4 67.99,-17.4 h 29.75 51.2 c 0,0 38.25,-4.3 51.16,0 12.67,4.2 25.31,-16.7 38.03,-1.9 12.66,14.5 46.77,57 46.77,57 0,0 21.22,21.3 -16.76,31.9 -38.29,10.8 0,-2.2 -80.95,0 -80.9,2.3 -110.65,0 -110.65,0 0,0 -25.57,10.7 -38.29,0 -12.59,-10.4 -17.03,6.4 -63.87,0 -46.77,-6.3 -119.12,0 -119.12,0 h -38.3 l -42.33,19.3 c 0,0 -4.44,8.4 -17.38,8.4 -12.64,0 -29.69,21.3 -29.69,21.3 l -4.17,17 -29.74,17.2 c -25.31,0 -72.08,25.5 -85.29,0 -12.69,-25.7 -33.83,-42.7 -46.55,-55.5 -12.93,-12.7 -25.62,-16.9 -33.86,-29.6 -8.75,-12.8 3.85,-17.1 0,-30 -4.7,-12.6 -46.77,-4.1 -4.7,-12.6"
         style="fill:#231f20;fill-opacity:1;fill-rule:nonzero;stroke:none"
         id="path28" /><path
         d="m 9613.2,16911.7 c 9.67,22.5 9.67,22.1 12.72,43 3.26,20.9 19.22,33.6 -15.72,52.8 -35.24,19 -41.58,22.2 -73.46,51 -31.99,28.7 -76.59,89.2 -76.59,89.2 0,0 -6.29,12.9 -6.29,47.9 0,35.1 0,51 0,67.1 0,16 19,38.3 -25.84,51 -44.66,12.9 -127.48,41.6 -127.48,41.6 l -76.52,83 c 0,0 -12.67,12.6 -28.62,31.8 -15.98,19 0,41.4 -41.56,41.4 -41.54,0 -22.31,16 -76.56,0 -54.47,-16 -108.41,-18.1 -108.41,-18.1 l -54.25,21.3 c 0,0 -35.47,19.2 -62.48,47.7 -27.24,28.9 -46.24,67.1 -77.86,60.9 -32.2,-6.6 -67.18,-25.8 -79.83,-19.3 -12.93,6.4 -31.13,-14.9 -71.3,-20.1 -40.49,-5.4 -104.34,0 -104.34,0 l -41.29,20.1 -35.17,44.7 -60.88,25.5 h -22.29 -12.37 c 0,0 -35.52,0 -51.21,-22.4 -15.98,-22.3 -47.84,-47.8 -47.84,-47.8 0,0 -16.03,-8.5 -32.01,-20.1 -15.96,-11.8 -31.86,-14.9 -44.58,-30.9 -12.91,-16 -28.89,3.3 -34.93,-19.1 -6.6,-22.4 -25.63,-41.5 -35.23,-54.3 -9.62,-12.7 -22.55,-9.5 -25.58,-22.2 -3.31,-13 -6.35,-23.4 0,-37.4 6.34,-13.7 12.65,-13.7 28.63,-29.8 16.22,-15.8 35.17,-25.4 35.17,-25.4 h 31.94 c 0,0 25.04,0 38.03,0 12.91,0 51.15,-3.3 60.82,0 9.6,3.2 47.85,-1.5 47.85,-1.5 h 28.94 c 0,0 -44.92,24.1 28.35,0 73.47,-24.2 89.45,-24.2 89.45,-24.2 0,0 -19.02,-9.4 22.27,0 41.61,9.7 60.87,22.4 60.87,22.4 0,0 34.91,19.1 44.59,19.1 9.61,0 38.24,6.5 57.19,6.5 19.27,0 28.94,3.1 44.92,0 15.96,-3.2 44.58,-6.5 57.52,-16 12.69,-9.6 41.26,-21.3 56.98,-36.1 15.95,-14.9 28.86,-14.9 41.85,-27.6 12.66,-12.8 -3.32,9.5 12.66,-12.8 15.91,-22.4 22.54,-28.7 44.53,-57.5 22.63,-28.6 12.99,-19.1 38.3,-51 25.58,-31.9 50.13,-35.2 69.62,-54.2 19.81,-19 35.79,-25.6 35.79,-25.6 0,0 38.29,-3.1 60.6,-25.4 22.54,-22.4 12.6,19.1 22.54,-22.4 9.35,-41.4 19,-3.1 9.35,-41.4 -9.35,-38.4 28.62,-25.6 -28.62,-47.8 -57.52,-22.4 -36.05,-6.9 -99.66,-14.6 -63.02,-7.8 -184.38,20.6 -206.96,0 -22.02,-20.5 -47.6,-17.3 -63.56,-55.8 -16.03,-38 -38.29,-19 -16.03,-66.9 22.61,-47.8 3.32,-15.9 22.61,-47.8 19,-31.9 25.31,-12.8 47.62,-66.9 22.27,-54.4 -12.66,-28.9 38.22,-83.1 51.23,-54.2 108.48,-79.7 143.71,-98.8 34.97,-19.2 134.05,-25.6 134.05,-25.6 l 32.71,19.2 c 0,0 42.15,-3.2 0,31.8 -42.33,35.1 -80.63,79.8 -80.63,79.8 l 9.63,28.7 c 0,0 9.66,22.4 25.62,22.4 15.98,0 88.92,-31.9 88.92,-31.9 0,0 9.89,-3.2 19.53,-6.4 9.36,-3.1 -3.31,-6.4 31.89,-3.1 35.03,3.1 50.67,6.3 57.3,15.8 6.31,9.6 25.58,25.6 22.58,51.2 -3.29,25.4 -16.27,57.3 -19.54,66.9 -3.04,9.4 -9.67,38.2 -9.67,47.8 0,9.7 -3.05,54.2 -3.05,63.9 0,9.5 -5.74,19.2 32.48,31.7 38.02,13 60.02,13 60.02,13 0,0 25.63,-9.7 44.66,-22.6 19.21,-12.6 60.75,-31.8 60.75,-31.8 0,0 6.36,-6.3 31.94,-3.2 25.31,3.2 25.31,3.2 47.91,9.6 22,6.3 34.96,-3.3 44.58,19.1"
         style="fill:#231f20;fill-opacity:1;fill-rule:nonzero;stroke:none"
         id="path30" /><path
         d="m 9164.26,18103.7 c -30.54,-29.7 -56.12,-38.2 -56.12,-38.2 0,0 -21.2,-17 -34.18,0 -12.59,17 -58.05,33.9 -58.05,33.9 l 32.52,-80.7 c 0,0 -22.31,29.8 -32.52,0 -9.86,-29.8 -14.03,-29.8 -26.96,-29.8 -12.92,0 -25.58,25.6 -63.61,0 -38.22,-25.5 -93.81,-25.5 -106.53,-21.2 -9.86,3.2 -19.22,-7.9 -36.05,-7.5 -5.48,0.2 -11.79,1.6 -19.27,5.4 -29.7,14.8 -46.77,0 -42.61,-5.4 4.36,-5.4 97.93,-37.8 110.65,-32.1 12.91,5.5 76.46,0 76.46,0 l 55.38,18.3 c 0,0 16.25,17 31.62,0 15.15,-17.1 74.59,-18.3 74.59,-18.3 0,0 12.98,-2.9 38.56,-24.3 25.58,-21.2 76.51,-21.2 76.51,-21.2 0,0 25.58,17 38.25,21.2 12.65,4.3 50.94,1.5 46.77,24.3 -4.12,22.6 25.63,39.6 38.03,43.8 13.18,4.3 38.49,29.7 64.14,34 25.31,4.2 34.1,12.8 72.08,25.6 38.25,12.8 63.87,15.5 76.79,24.8 12.71,9.2 50.96,34.7 68.03,34.7 17.03,0 76.47,29.9 89.18,29.9 12.6,0 72.36,38.2 97.71,38.2 25.61,0 93.84,12.7 106.51,12.7 12.91,0 38.22,21.3 67.96,21.3 30.02,0 -16.75,12.8 55.3,17 72.7,4.3 217,38.3 217,38.3 0,0 42.6,21.3 55.3,25.5 4.4,1.5 17,8.5 31.4,16.3 -238.4,-9.2 -474.03,-29.6 -706.64,-59.9 -34.37,-40.6 -40.19,-65.4 -52.28,-58 -12.64,8 -123.02,-13.2 -135.68,-17.4 -12.65,-4.5 -34.13,-4.5 -34.13,-4.5 l -25.63,4.5 c 0,0 -4.39,13.8 -29.7,17.4 -25.62,3.7 -25.62,3.7 -25.62,3.7 0,0 -3.85,3.1 -9.33,6.9 -40.22,-6.9 -80.39,-13.8 -120.27,-21.4 9.09,-30.5 23.33,-30 -5.56,-57.8"
         style="fill:#231f20;fill-opacity:1;fill-rule:nonzero;stroke:none"
         id="path32" /><path
         d="m 6400.83,11944.7 c -32.25,38.4 -32.25,19.4 -76.85,57.4 -44.58,38.4 -63.85,25.6 -89.16,57.7 -25.58,31.8 -114.76,0 -114.76,0 0,0 -64.14,31.8 -83.14,31.8 -19.03,0 -178.64,31.8 -197.66,31.8 -19.22,0 -127.41,-63.6 -127.41,-63.6 l -44.85,-19.3 v -31.8 l 70.16,-19.2 c 0,0 0,0 40.76,0 40.41,0 42.12,0 42.12,0 l 44.55,12.6 70.48,6.6 c 0,0 529.3,-255.3 548.59,-236.3 19.27,19.3 70.16,0 70.16,0 v 51.3 c 0,0 0,0 -19.27,6.3 -19,6.3 -57.25,19 -102.1,76.4 -44.6,57.7 0,0 -31.62,38.3"
         style="fill:#231f20;fill-opacity:1;fill-rule:nonzero;stroke:none"
         id="path34" /><path
         d="m 6757.76,11606.6 -50.94,-6.3 -108.4,-31.9 c 0,0 0,0 44.58,3.5 44.61,3.4 76.52,-3.5 114.76,0 38.57,3.4 38.57,28.4 57.56,10 19.01,-18.5 70.45,-7.1 121.39,0 27.82,3.9 36.3,5.1 38.49,5.6 3.04,-0.5 76.81,-12.4 107.94,0.1 31.91,12.7 0,0 44.85,25.5 44.92,25.5 44.92,6.2 127.72,38.1 82.82,31.9 0,0 -6.6,44.9 -6.31,44.5 0,0 -37.98,12.8 -38.22,12.5 -64.14,18.9 -96.08,31.7 -31.91,12.8 -50.89,0 -108.45,25.7 -57.25,25.7 -31.93,5.2 -31.93,5.2 0,0 -50.94,-11.8 -76.25,0 -25.85,11.8 -83.1,0 -83.1,0 v -43.7 l 19.01,-54 -31.65,-41.7 -44.92,-25.5"
         style="fill:#231f20;fill-opacity:1;fill-rule:nonzero;stroke:none"
         id="path36" /><path
         d="m 10107.6,18120.9 c -51,25.3 -140.39,-89.4 -140.39,-89.4 v -103.4 h 76.49 c 0,0 332,52.3 408.5,26.7 76.5,-25.5 0,0 12.6,-72.2 12.9,-72.3 50.9,-143.4 50.9,-143.4 l 191.6,-65 121.4,-89.4 c 0,0 12.7,6.5 19,-31.8 6.6,-38.3 19,-32 0,-70.3 -19,-38.3 -57.2,-62.7 -57.2,-62.7 v -58.5 c 0,0 38.2,12.9 12.6,-51 -25.6,-63.9 -44.9,-82.9 -63.8,-95.5 -19.3,-13 -44.9,-13 -51.3,-38.5 -6,-25.6 -46.2,-84.5 -46.2,-84.5 0,0 -65.2,-30.2 -44.6,-49.4 21,-19.2 0,-87.9 0,-87.9 0,0 -55.8,-46.2 -94.1,-58.8 -38.3,-12.9 -63.8,-153.2 -76.6,-204.2 -12.6,-51.1 38.3,-181.9 38.3,-181.9 0,0 50.9,-73.5 132.4,-86 81.5,-12.9 403.6,0 416.2,86 12.9,86.1 191.6,92.7 191.6,92.7 0,0 0,0 89.5,101.9 89.2,102.1 63.5,51.1 140.3,165.9 76.5,114.8 76.5,0 76.5,0 0,0 229.6,12.7 370,84.4 140.6,71.5 59.2,0 59.2,0 0,0 119.4,81.6 183.2,137.3 0,0 293.2,71.8 395.6,110.6 101.8,38.6 63.8,-13.3 101.8,0 38.6,13.1 89.5,0 89.5,0 0,0 51.2,12.4 115.1,63.3 63.5,51 -38.4,63.8 -38.4,63.8 0,0 -38.5,76.6 -25.5,90.3 12.6,14 76.5,73.4 76.5,73.4 v 73 l 63.9,37.6 c 0,0 50.9,57.4 267.8,135.2 165.1,59.4 138.7,42.8 155.5,62.1 -815.8,308.8 -1697.8,482.2 -2619,493.9 -65.5,-24.3 -41.3,-141.5 -64.7,-174.3 -26.9,-38.4 -215.3,-42.9 -215.3,-42.9 0,0 -268,17.3 -318.9,42.9"
         style="fill:#231f20;fill-opacity:1;fill-rule:nonzero;stroke:none"
         id="path38" /><path
         d="m 13825.1,15755.8 c 42.7,51.2 0,0 0,54.4 h -42.4 c 0,0 -34.1,5.1 -59.8,0 -25.5,-5.1 -51.1,-3.2 -76.4,0 -25.7,3.3 -51,5.1 -85.1,39.4 -33.9,33.9 -68,0 -68,0 l -136.2,-93.8 h -127.5 l -42.7,-85 h 42.7 l 68,-8.4 68,-34 h 59.7 59.5 c 0,0 67.9,0 93.6,0 25.3,0 50.9,0 50.9,0 l 33.8,59.5 h 42.7 c 0,0 76.8,17 119.2,67.9"
         style="fill:#231f20;fill-opacity:1;fill-rule:nonzero;stroke:none"
         id="path40" /><path
         d="m 14199.4,15338.8 c 0,-25.3 -119.2,-84.9 -119.2,-84.9 h 119.2 l 76.5,34 c 51.3,0 178.7,25.6 178.7,25.6 h 42.6 76.6 l 50.8,25.3 v 51.3 42.5 l 59.5,42.6 -50.9,42.5 -119.1,110.7 -16.9,57 -42.6,95.9 -34.2,83.3 h -67.9 c 0,0 -17.1,27.4 -17.1,53 0,25.5 0,59.4 0,59.4 v 68.1 l -50.9,34 c 0,0 -34.2,85.1 -51,0 -17.1,-85 -8.5,-34 -17.1,-85 -8.4,-51 0,-17.1 -8.4,-51 -8.6,-34 -8.6,-34 -8.6,-34 v -44.5 l 85.1,-40.7 34.1,-42.6 v -34.9 -67 -51 h -59.7 v -34.2 h -59.5 v -42.4 -34.1 -68.1 h 59.5 l 59.7,-34 -59.7,-76.8 c 0,0 -59.5,25.8 -59.5,0"
         style="fill:#231f20;fill-opacity:1;fill-rule:nonzero;stroke:none"
         id="path42" /><path
         d="m 15275.4,16666.1 c -44.7,-12.7 -57.3,19.1 -82.6,-38.3 -25.9,-57.3 -115.1,-44.6 -102.4,-108.5 12.7,-63.6 0,-8.3 12.7,-99.8 12.6,-91.5 6.6,-97.9 32.2,-136.2 25.3,-38.4 31.6,-63.8 50.9,-95.8 19.2,-31.8 63.9,-38.1 63.9,-38.1 0,0 31.6,-12.7 108.4,6.3 76.5,19.1 172.3,57.4 210.5,57.4 38,0 44.6,0 76.6,-51 31.9,-50.9 12.7,-25.4 38.5,-108.4 25.3,-83 0,-108.5 38,-146.8 38.3,-38.2 82.8,-65.5 121.1,-42.3 38.3,23.2 86.5,55 123.1,67.8 31.6,11 78.4,78.8 90.8,97.3 -227.6,228.9 -470.4,442.3 -725.3,641.3 -15.9,1.2 -36.1,0.9 -56.4,-4.9"
         style="fill:#231f20;fill-opacity:1;fill-rule:nonzero;stroke:none"
         id="path44" /><path
         d="m 17890.8,13060.9 c -33.6,-18 -50.4,-18.5 -50.4,-18.5 0,0 -51.2,0 -76.8,0 -25.3,0 -161.5,-34.2 -186.9,0 -25.6,33.8 -272.2,118.9 -272.2,118.9 -51.2,-34.1 -221.3,-34.1 -221.3,-34.1 -51.2,8.5 -135.9,42.6 -135.9,42.6 l -127.8,68.1 -221.3,16.9 c 0,0 -33.8,-42.5 -33.8,-93.5 0,-51 50.9,-89.8 0,-134.2 -51,-44.5 -85.1,-61.6 -110.7,-61.6 -25.6,0 -50.9,-8.5 -76.6,0 -25.5,8.4 -212.4,51.1 -267.8,64 -55.6,12.9 -143,76.5 -143,76.5 v 63.8 l -155,63.8 c 0,0 -50.9,12.8 -89.2,25.4 -38,12.7 -153.1,89.4 -153.1,89.4 l -12.9,140.3 v 76.6 l -38.2,89.3 c 0,0 0,89.3 -38.3,89.3 -38.2,0 -204.2,-51 -204.2,-51 l -102.1,-12.6 h -127.5 c 0,0 63.9,12.6 -63.8,12.6 -127.7,0 -382.9,0 -382.9,0 -89.2,-89.3 -280.5,-216.8 -280.5,-216.8 0,0 -233.9,12.6 -238.4,25.5 -4.1,12.7 -166.8,38.2 -166.8,38.2 0,0 -20.9,-76.6 -69.3,-114.8 -48.8,-38.2 -48.8,-38.2 -48.8,-38.2 l -153,-140.4 -126.9,-89.4 c -0.8,-76.6 39.4,-160.6 0,-195.1 -39,-34.6 -128.3,-123.9 -128.3,-123.9 h -64 c 0,0 -51,-63.8 -76.3,-102.1 -25.9,-38.2 -59.8,-76.6 -59.8,-76.6 0,0 -42.6,-25.4 -67.9,-76.4 -25.4,-51.2 -89.5,-102.1 -89.5,-102.1 l -127.4,-204.2 c 0,0 63.8,25.5 0,-63.8 -63.9,-89.4 -114.9,-114.9 -140.4,-191.4 -25.6,-76.7 -13,50.9 -25.6,-76.7 -12.9,-127.5 -51,-140.2 0,-191.3 51.1,-51 51.1,-38.3 51.1,-114.8 0,-76.6 12.7,-76.6 -12.9,-153.4 -25.6,-76.4 -26.1,-25.1 -64.1,-152.8 -38,-127.7 -12.9,-229.8 0,-268.2 13,-38.2 -89.2,89.4 13,-38.2 102.4,-127.6 140.6,-159.4 191.5,-220 51.2,-60.6 -25.6,156.3 51.2,-60.6 76.5,-217 51,-177.6 114.8,-312.1 63.6,-134.6 33.9,-134.6 106.2,-223.9 72.4,-89.3 47.1,-76.6 136.1,-140.5 89.4,-63.7 -140.5,-12.6 89.4,-63.7 229.8,-51.1 178.6,-76.6 331.7,0 153,76.6 38.2,63.7 153,76.6 115.1,12.7 242.5,12.7 242.5,12.7 0,0 38.5,-25.6 76.7,-25.6 38.3,0 242.6,63.9 242.6,63.9 0,0 -38.6,38.3 63.5,76.6 102.1,38.2 25.7,25.7 102.1,38.2 76.8,12.9 76.8,12.9 76.8,12.9 0,0 51,25.5 127.6,-12.9 76.4,-38.2 140.3,-76.5 191.5,-127.5 50.9,-51.2 -38.5,51 50.9,-51.2 89.2,-102 216.9,-112.1 216.9,-112.1 0,0 25.6,53.9 63.9,0 37.9,-53.7 50.9,-40.8 76.5,-117.5 25.6,-76.4 12.7,38.4 25.6,-76.4 12.6,-115.1 -64.2,-38.5 -38.6,-191.6 25.7,-153.1 -12.6,-25.5 25.7,-153.1 38.2,-127.6 -25.7,-25.5 63.8,-191.4 89.2,-165.8 -54.2,-89.3 93.8,-242.5 0,0 140.2,-144.5 140.2,-187 0,-42.7 -8.6,8.3 8.5,-85.2 16.8,-93.5 33.8,-110.6 59.4,-161.5 25.7,-51.2 34.2,-127.6 51,-170.2 17,-42.6 8.5,-85.2 25.5,-161.7 17.1,-76.6 8.6,-127.7 -8.5,-170.1 -17,-42.6 -33.8,-51.1 -59.4,-127.7 -25.6,-76.4 -68,-34 -93.6,-169.9 -25.3,-136.2 -50.9,-136.2 -25.3,-238.4 25.3,-102.1 16.8,-153.1 42.4,-229.7 25.3,-76.5 42.3,-93.4 102.1,-187.1 59.4,-93.4 96.9,-195.7 125,-263.6 28,-68.1 11.2,-25.5 45.1,-153.2 33.9,-127.5 25.3,-59.4 59.4,-221.2 33.9,-161.7 25.6,-204.1 85.4,-340.3 59.1,-135.9 110.3,-195.7 135.9,-212.6 25.7,-17 25.7,42.6 76.5,-93.6 50.4,-134.2 -30.8,-79.3 48.2,-223.8 1166.8,1347.5 1874.2,3103.5 1874.2,5025.9 0,856.2 -142,1678.5 -400.2,2447.5"
         style="fill:#231f20;fill-opacity:1;fill-rule:nonzero;stroke:none"
         id="path46" /><path
         d="m 16373.1,15689.8 c -6.4,-1.8 -12.2,-5 -19.6,-4.4 -50.9,4.5 -89.1,-4.4 -108.1,0 -19.1,4.5 -134.1,-10.9 -153.1,0 -19.5,11 -118.1,-14.6 -126,-33.7 -8,-19.1 -84.8,-34.1 -103.8,-23.3 -19.3,10.6 -121.2,57 -121.2,57 H 15620 c 0,0 -70.2,-17.2 -89.2,0 -19.3,17.3 -44.6,-10.9 -63.9,0 -19.2,11 -82.8,-42.3 -89.4,-57 -6.4,-15.1 -6.4,14.7 -51,0 -44.8,-15.1 -38.2,27.4 -82.8,0 -44.8,-27.7 -83.1,-15.1 -96.1,-40.6 -12.3,-25.6 -57.2,-38.3 -63.5,-57.4 -6.4,-19 12.6,0 -38.3,-51 -50.9,-51 -102.1,-70.2 -121.4,-83.1 -19,-12.6 -12.7,-12.6 -50.9,-31.7 -38.2,-19.2 -70.2,-38.4 -108.4,-63.9 -38.4,-25.5 -89.5,-44.6 -134.1,-76.4 -44.6,-32.1 -63.6,-57.5 -108.5,-83 -44.3,-25.5 -82.8,-38.3 -140.4,-44.8 -57.5,-6.3 -101.8,-12.8 -121,-19.2 -19,-6.3 -102.1,-6.3 -102.1,-31.9 0,-25.3 25.6,-63.7 57.4,-76.5 32,-12.7 102.2,-31.9 121.2,-44.5 19.3,-12.8 -19,31.8 19.3,-12.8 38.2,-44.6 12.6,-70.3 25.2,-102.2 13,-31.8 -18.9,6.5 0,-63.7 19.4,-70.2 0,-95.7 0,-140.4 0,-7.6 0,-11.8 0,-14.4 0,-2.1 0,-2.9 0,-2.9 0,-3.9 0,-11.8 0,-27.4 0,-63.7 44.6,-31.9 0,-63.7 -44.5,-32.1 -44.5,-32.1 -76.5,-32.1 -31.9,0 -106.2,32.1 -106.2,32.1 0,0 -59.7,25.6 -119.2,0 -59.4,-25.6 -112,14 -166.8,11.3 -54.2,-2.9 5.3,-2.9 -54.2,-2.9 -59.4,0 -76.5,-0.1 -102.1,-17.1 -25.6,-16.9 -59.5,-50.8 -59.5,-50.8 v -76.4 c 0,0 8.3,42.9 59.5,0 50.9,-42.8 156.3,-42.8 156.3,-42.8 l 35,-42.4 c 0,0 4.4,-25.7 0,-51.1 -4.4,-25.6 -35,-76.6 -35,-76.6 0,0 29.5,-25.6 0,-68.1 -28.6,-42.6 0,-110.6 0,-110.6 0,0 -33.5,-42.6 -69.3,-59.6 -36.1,-16.9 -53.2,-42.5 -53.2,-67.9 0,-25.7 53.2,-119.3 53.2,-119.3 h 40.7 119.2 76.2 c 0,0 76.5,-25.5 119.2,0 42.7,25.7 182.7,102.2 182.7,102.2 0,0 38.3,59.5 46.9,85 8.5,25.5 51.1,110.7 51.1,110.7 l 34,89.3 110.5,97.9 59.5,59.4 51.2,93.9 v 33.8 l 144.5,113.5 h 59.8 c 0,0 25.5,45.7 67.7,0 42.9,-45.5 42.9,-45.5 42.9,-45.5 l 170.1,8.5 76.2,57.4 93.6,53.1 59.8,-51 76.5,-76.4 c 0,0 17,-8.6 51.2,-34.1 33.9,-25.5 68,-33.3 110.4,-59.3 42.6,-25.8 85,-59.8 85,-59.8 l 136.3,-93.5 c 0,0 28.9,0 57,-17.1 28,-17 62.1,-44 62.1,-44 v -58 c 0,0 25.3,-17.2 42.4,-42.6 17.1,-25.5 -17.1,-25.5 0,-59.5 17.1,-34.1 17.1,-34.1 17.1,-34.1 0,0 -42.6,-93.6 0,-93.6 42.4,0 42.4,0 42.4,0 v 102.1 85.1 100.6 c 0,0 42.6,32.7 76.5,0 34.4,-32.6 34.4,-32.6 34.4,-32.6 l 68,-8.6 c 0,0 16.8,41.2 -42.7,41.2 -59.7,0 -212.8,86.5 -212.8,86.5 l -127.4,85.1 -51.2,42.8 -76.5,118.9 -59.4,101.9 h -59.5 l 33.9,110.7 c 0,0 67.9,-8.5 93.5,0 25.7,8.4 59.8,-76.6 59.8,-76.6 0,0 118.9,-59.5 170.1,-85.1 50.9,-25.5 153,-59.5 153,-59.5 l 121.4,-51 c 0,0 -74.3,17.1 0,-25.5 74.3,-42.6 74.3,-42.6 74.3,-42.6 0,0 34.2,8.5 68,-76.4 33.9,-85.2 -33.8,-119.2 0,-144.7 33.9,-25.7 33.9,-25.7 33.9,-25.7 0,0 0.2,-84.9 42.6,-84.9 42.4,0 110.4,0 110.4,0 0,0 51.5,-85.2 60,-110.7 8.5,-25.5 76.3,-16.9 8.5,-25.5 -68.5,-8.4 -51.2,68.1 -68.5,-8.4 -16.8,-76.6 9.1,-164.6 9.1,-164.6 h 42.4 c 0,0 59.4,-28.3 93.2,0 34.2,28.3 59.9,88 59.9,88 0,0 16.9,59.5 0,85 -17.4,25.5 -68.3,93.5 -68.3,93.5 0,0 -33.9,34.2 -16.9,76.7 16.9,42.4 76.6,172.2 136,141.4 59.5,-30.8 144.5,30.8 178.7,0 34.1,-30.8 76.8,-30.8 102.1,-39.3 25.6,-8.5 118.8,39.3 118.8,39.3 0,0 34.2,45.7 0,71.2 -33.8,25.5 -59.3,68.7 -59.3,93.9 0,20.7 11.2,86.2 15.3,109.8 -253.2,435.3 -547.4,843.4 -878.5,1219"
         style="fill:#231f20;fill-opacity:1;fill-rule:nonzero;stroke:none"
         id="path48" /><path
         d="m 15301.2,14305.6 c -17.3,55.9 -85.8,38.1 -121.4,69.9 l -25.5,38.4 c 0,-28 -48.5,-100.2 -62.3,-139.1 -19.2,-53.7 -20.1,-90.9 -20.6,-148.1 -0.8,-64 -48.4,-334.5 76.8,-228.1 93.6,79.6 -7.7,188.8 77.6,271.2 36.1,35 94.7,72.5 75.4,135.8"
         style="fill:#231f20;fill-opacity:1;fill-rule:nonzero;stroke:none"
         id="path50" /><path
         d="m 9399.34,15141 c -22.02,50.9 -17.32,115.7 -19.83,171.8 -12.06,3.4 -14.56,-4.3 -24.77,-12.1 v -6.4 c -74.32,-72.7 -103.48,-153.5 -197.37,-202.8 -51.42,-26.9 -203.09,-102.4 -83.9,-128.9 60.25,-13.3 120.27,22.5 179.17,19.4 46.51,-2.4 69.62,-33.3 109.8,-45.1 93.88,-27.6 189.35,38 176.76,133.2 -60.88,3.8 -119.2,24.1 -139.86,70.9"
         style="fill:#231f20;fill-opacity:1;fill-rule:nonzero;stroke:none"
         id="path52" /></g></g></svg>
